<svg width="24" height="24" viewBox="0 0 24 24" fill="none" xmlns="http://www.w3.org/2000/svg">
<g clip-path="url(#clip0_101_16)">
<path d="M18.5 0H5.5C4.04212 0.00264349 2.64471 0.582955 1.61383 1.61383C0.582955 2.64471 0.00264349 4.04212 0 5.5L0 18.5C0.00264349 19.9579 0.582955 21.3553 1.61383 22.3862C2.64471 23.417 4.04212 23.9974 5.5 24H18.5C19.9579 23.9974 21.3553 23.417 22.3862 22.3862C23.417 21.3553 23.9974 19.9579 24 18.5V5.5C23.9974 4.04212 23.417 2.64471 22.3862 1.61383C21.3553 0.582955 19.9579 0.00264349 18.5 0ZM20 16C20 17.0609 19.5786 18.0783 18.8284 18.8284C18.0783 19.5786 17.0609 20 16 20H8C6.93913 20 5.92172 19.5786 5.17157 18.8284C4.42143 18.0783 4 17.0609 4 16V8C4 6.93913 4.42143 5.92172 5.17157 5.17157C5.92172 4.42143 6.93913 4 8 4H16C17.0609 4 18.0783 4.42143 18.8284 5.17157C19.5786 5.92172 20 6.93913 20 8V16Z" fill="#221B74"/>
<path d="M8 12C8 13.0609 8.42143 14.0783 9.17157 14.8284C9.92172 15.5786 10.9391 16 12 16C13.0609 16 14.0783 15.5786 14.8284 14.8284C15.5786 14.0783 16 13.0609 16 12C16 10.9391 15.5786 9.92172 14.8284 9.17157C14.0783 8.42143 13.0609 8 12 8C10.9391 8 9.92172 8.42143 9.17157 9.17157C8.42143 9.92172 8 10.9391 8 12Z" fill="#221B74"/>
<path d="M16 7C16 7.26522 16.1054 7.51957 16.2929 7.70711C16.4804 7.89464 16.7348 8 17 8C17.2652 8 17.5196 7.89464 17.7071 7.70711C17.8946 7.51957 18 7.26522 18 7C18 6.73478 17.8946 6.48043 17.7071 6.29289C17.5196 6.10536 17.2652 6 17 6C16.7348 6 16.4804 6.10536 16.2929 6.29289C16.1054 6.48043 16 6.73478 16 7Z" fill="#221B74"/>
</g>
<defs>
<clipPath id="clip0_101_16">
<rect width="24" height="24" fill="white"/>
</clipPath>
</defs>
</svg>
